<?xml version="1.0" encoding="UTF-8"?>
<svg width="24px" height="24px" viewBox="0 0 24 24" version="1.1" xmlns="http://www.w3.org/2000/svg" xmlns:xlink="http://www.w3.org/1999/xlink">
    <title>ic_notice</title>
    <g id="dummy" stroke="none" stroke-width="1" fill="none" fill-rule="evenodd">
        <g id="2.1_搜尋檢索" transform="translate(-1174.000000, -27.000000)" fill-rule="nonzero">
            <g id="编组-3" transform="translate(1174.000000, 19.000000)">
                <g id="ic_notice" transform="translate(0.000000, 8.000000)">
                    <rect id="矩形" fill="#000000" opacity="0" x="0" y="0" width="24" height="24"></rect>
                    <path d="M22.6085391,17.2622578 L20.0289844,11.780625 L20.0289844,9.33063281 C20.0289844,4.90680469 16.43025,1.30680469 12.0051562,1.30680469 C7.5800625,1.30680469 3.98132812,4.906875 3.98132812,9.33063281 L3.98132812,11.780625 L1.40149219,17.2622578 C1.25527187,17.5729762 1.27823592,17.9369116 1.46235319,18.2267859 C1.64647045,18.5166602 1.96612738,18.6921475 2.30953125,18.691875 L7.01821875,18.691875 C7.15860937,20.2444688 8.307375,22.7037891 12.0050625,22.7037891 C15.70275,22.7037891 16.851375,20.244375 16.9918828,18.691875 L21.7004766,18.691875 C22.0438679,18.6921234 22.3635027,18.5166264 22.5476031,18.2267562 C22.7317035,17.936886 22.7546603,17.5729649 22.6084453,17.2622578 L22.6085391,17.2622578 Z M12.0050859,20.6978203 C9.68346094,20.6978203 9.15658594,19.3792266 9.03747656,18.6918516 L14.9725547,18.6918516 C14.8521328,19.3805859 14.3265938,20.6978203 12.0050859,20.6978203 Z M3.89015625,16.6857891 L5.8921875,12.4330781 C5.95501426,12.2991664 5.98747554,12.1530266 5.98725,12.0051094 L5.98725,9.33065625 C5.98725,6.01277344 8.68725,3.31275 12.0051094,3.31275 C15.3242813,3.31275 18.0230625,6.01277344 18.0230625,9.33065625 L18.0230625,12.0052969 C18.0228103,12.1531838 18.0551892,12.2993051 18.1178906,12.4332422 L20.119875,16.6857891 L3.89015625,16.6857891 Z" id="形状" fill="#747A92"></path>
                </g>
            </g>
        </g>
    </g>
</svg>