<?xml version="1.0" encoding="UTF-8"?>
<svg width="24px" height="24px" viewBox="0 0 24 24" version="1.1" xmlns="http://www.w3.org/2000/svg" xmlns:xlink="http://www.w3.org/1999/xlink">
    <title>icon_minus_hover 2</title>
    <g id="dummy" stroke="none" stroke-width="1" fill="none" fill-rule="evenodd">
        <g id="2.1_搜尋檢索" transform="translate(-1305.000000, -274.000000)" fill-rule="nonzero">
            <g id="icon_minus_hover" transform="translate(1305.000000, 274.000000)">
                <rect id="矩形" fill="#000000" opacity="0" x="0" y="0" width="24" height="24"></rect>
                <path d="M12.0001641,23.9200781 C5.416875,23.9200781 0.0799921875,18.5824688 0.0799921875,12.0000703 C0.0799921875,5.41767187 5.416875,0.079921875 12.0001641,0.079921875 C18.5834531,0.079921875 23.9200078,5.41680469 23.9200078,12.0000703 C23.9200078,18.5835234 18.5825625,23.9200781 12.0001641,23.9200781 Z M18.5223281,11.3252813 C18.5223281,11.0776159 18.3215169,10.8768564 18.0738516,10.8768047 L13.1247187,10.8768047 L10.8770391,10.87575 L5.92774219,10.87575 C5.80878662,10.87575 5.69470667,10.9230219 5.61060337,11.0071472 C5.52650007,11.0912724 5.47928905,11.2053648 5.47928905,11.3243203 L5.47928905,12.6738516 C5.47928905,12.9215383 5.68007886,13.1223281 5.92776562,13.1223281 L10.8759141,13.1223281 L13.1224687,13.1246484 L18.0724687,13.1246484 C18.1914162,13.1246484 18.3054841,13.0773586 18.3895773,12.9932347 C18.4736704,12.9091108 18.5208999,12.7950256 18.520875,12.6760781 L18.5223281,11.3252813 Z" id="形状" fill="#2949F2"></path>
            </g>
        </g>
    </g>
</svg>