<?xml version="1.0" encoding="UTF-8"?>
<svg width="24px" height="24px" viewBox="0 0 24 24" version="1.1" xmlns="http://www.w3.org/2000/svg" xmlns:xlink="http://www.w3.org/1999/xlink">
    <title>icon_delete</title>
    <g id="dummy" stroke="none" stroke-width="1" fill="none" fill-rule="evenodd">
        <g id="2.3.3_編輯專利摘要_政府補助計畫" transform="translate(-1382.000000, -417.000000)" fill-rule="nonzero">
            <g id="编组-11备份" transform="translate(271.000000, 404.000000)">
                <g id="icon_delete" transform="translate(1111.000000, 13.000000)">
                    <rect id="矩形" fill="#000000" opacity="0" x="0" y="0" width="24" height="24"></rect>
                    <path d="M20.9999922,4.99999219 L16.9999922,4.99999219 L16.9999922,4.00000781 C16.9999922,2.29999219 15.7000078,1.00000781 13.9999922,1.00000781 L10.0000078,1.00000781 C8.29999219,1.00000781 7.00000781,2.29999219 7.00000781,4.00000781 L7.00000781,4.99999219 L2.99999219,4.99999219 C2.4,4.99999219 1.99999219,5.4 1.99999219,6.00000781 C1.99999219,6.6 2.4,7.00000781 2.99999219,7.00000781 L4.00000781,7.00000781 L4.00000781,19.9999922 C4.00000781,21.7000078 5.29999219,22.9999922 7.00000781,22.9999922 L16.9999922,22.9999922 C18.7000078,22.9999922 19.9999922,21.7000078 19.9999922,19.9999922 L19.9999922,7.00000781 L20.9999922,7.00000781 C21.6,7.00000781 22.0000078,6.6 22.0000078,6.00000781 C22.0000078,5.4 21.6,4.99999219 20.9999922,4.99999219 Z M9,4 C9,3.40000781 9.40000781,3 10,3 L14,3 C14.5999922,3 15,3.40000781 15,4 L15,5 L9,5 L9,4 Z M18,19.9999922 C18,20.5999922 17.5999922,21.0000078 17,21.0000078 L7,21.0000078 C6.40000781,21.0000078 6,20.5999922 6,19.9999922 L6,7.00000781 L18,7.00000781 L18,19.9999922 Z M10,10.0000078 C9.40000781,10.0000078 9,10.3999922 9,10.9999922 L9,16.9999922 C9,17.5999922 9.40000781,18.0000078 10,18.0000078 C10.6000078,18.0000078 11,17.5999922 11,16.9999922 L11,10.9999922 C11,10.3999922 10.6000078,10.0000078 10,10.0000078 L10,10.0000078 Z M13.9999922,10.0000078 C13.3999922,10.0000078 13.0000078,10.3999922 13.0000078,10.9999922 L13.0000078,16.9999922 C13.0000078,17.5999922 13.3999922,18.0000078 13.9999922,18.0000078 C14.5999922,18.0000078 15.0000078,17.5999922 15.0000078,16.9999922 L15.0000078,10.9999922 C15.0000078,10.3999922 14.5999922,10.0000078 13.9999922,10.0000078 Z" id="形状" fill="#E61F1F"></path>
                </g>
            </g>
        </g>
    </g>
</svg>