<?xml version="1.0" encoding="UTF-8"?>
<svg width="38px" height="38px" viewBox="0 0 38 38" version="1.1" xmlns="http://www.w3.org/2000/svg" xmlns:xlink="http://www.w3.org/1999/xlink">
    <title>icon_tercher</title>
    <g id="dummy" stroke="none" stroke-width="1" fill="none" fill-rule="evenodd">
        <g id="2.1_搜尋檢索" transform="translate(-288.000000, -655.000000)">
            <g id="编组-8备份-3" transform="translate(270.000000, 639.000000)">
                <g id="icon_tercher" transform="translate(18.000000, 16.000000)">
                    <circle id="椭圆形" stroke="#556FF6" cx="19" cy="19" r="18.5"></circle>
                    <g id="用户" transform="translate(10.000000, 10.000000)" fill-rule="nonzero">
                        <rect id="矩形" fill="#000000" opacity="0" x="0" y="0" width="18" height="18"></rect>
                        <path d="M8.62096289,0 C8.96825977,0 9.31256836,0.0389238281 9.65388867,0.116771484 C9.99520898,0.19461914 10.3155703,0.299408203 10.6149727,0.431138671 C10.914375,0.56286914 11.1808418,0.712570311 11.414373,0.880242186 C11.6479043,1.04791406 11.830541,1.21558008 11.9622832,1.38324023 C12.2736504,1.76646679 12.5011934,2.18862304 12.6449121,2.64970898 C12.7886309,3.11079492 12.8904258,3.55091015 12.9502969,3.97005468 C13.0101797,4.44910546 13.0401211,4.93413866 13.0401211,5.42515429 C13.123957,5.4850371 13.1898223,5.5628789 13.2377168,5.65867968 C13.285623,5.74251561 13.3245469,5.85029882 13.3544883,5.98202929 C13.3844297,6.11375975 13.3874238,6.27543749 13.3634707,6.46706249 C13.3395176,6.71855858 13.288623,6.91916014 13.2107871,7.06886717 C13.1329512,7.2185742 13.0461211,7.33533983 12.9502969,7.41916405 C12.8425195,7.51497655 12.728748,7.58084178 12.6089824,7.61675975 C12.5490996,7.82036131 12.4892168,8.01198045 12.429334,8.19161717 C12.3694512,8.34730077 12.3005918,8.5 12.2227559,8.64970311 C12.1449199,8.79941014 12.0580898,8.91617576 11.9622656,9 C11.7347109,9.17964842 11.5490801,9.33234373 11.405373,9.45808592 C11.261666,9.58382811 11.1658594,9.79640623 11.1179531,10.0958203 C11.0820234,10.275457 11.0700469,10.4580879 11.0820234,10.6437129 C11.094,10.8293379 11.1448945,11.0149629 11.234707,11.2005879 C11.3245195,11.3862129 11.4622441,11.5628613 11.6478809,11.7305332 C11.8335176,11.8982051 12.0939961,12.0479121 12.4293164,12.1796543 C12.7287305,12.2994082 13.0550801,12.4071855 13.4083652,12.5029863 C13.7616504,12.5987871 14.1059648,12.7095703 14.4413086,12.8353359 C14.7766523,12.9611015 15.0730547,13.1167851 15.3305156,13.3023867 C15.5879766,13.4879883 15.7706133,13.7424843 15.8784258,14.065875 C15.9383086,14.2574765 15.9832207,14.4940019 16.0131621,14.7754511 C16.0431035,15.0569004 16.0580742,15.341332 16.0580742,15.6287461 C16.0580742,15.9161601 16.0371152,16.1856211 15.9951973,16.4371289 C15.9532793,16.6886367 15.8904082,16.88025 15.806584,17.0119687 C15.7467012,17.0958047 15.5760352,17.1796406 15.2945859,17.2634765 C15.0131367,17.3473125 14.665834,17.4281484 14.2526777,17.5059843 C13.8395215,17.5838203 13.3784473,17.6526855 12.8694551,17.71258 C12.3604629,17.7724746 11.8484824,17.8233691 11.3335137,17.8652636 C10.8185449,17.9071582 10.3245352,17.9400937 9.85148438,17.9640703 C9.37843359,17.9880468 8.96825391,18 8.62094531,18 C8.27363672,18 7.86944531,17.988 7.40837109,17.9640703 C6.94729688,17.9401406 6.47124609,17.9072109 5.98021875,17.8652812 C5.48919141,17.8233515 5.00116406,17.7754453 4.51613672,17.7215625 C4.03110938,17.6676797 3.59099414,17.610791 3.19579102,17.5508965 C2.80058789,17.4910019 2.46525586,17.4311191 2.18979492,17.371248 C1.91433398,17.3113769 1.74068555,17.2515 1.66884961,17.1916172 C1.54908398,17.0958047 1.45627148,16.8023906 1.39041211,16.311375 C1.32455273,15.8203593 1.35149414,15.1856308 1.47123633,14.4071894 C1.53111914,13.9640683 1.70776758,13.625748 2.00118164,13.3922285 C2.2945957,13.158709 2.63591016,12.9730781 3.025125,12.8353359 C3.41433984,12.6975937 3.81853125,12.5748398 4.23769922,12.4670742 C4.65686719,12.3593086 5.02812891,12.2036191 5.35148438,12 C5.60296875,11.8443105 5.79458203,11.6946035 5.92632422,11.5508847 C6.05806641,11.407166 6.15387891,11.263459 6.21376172,11.1197637 C6.27364453,10.9760683 6.30358594,10.8263613 6.30358594,10.6706426 C6.30358594,10.5149238 6.2975918,10.3412754 6.28560352,10.1496972 C6.26166211,9.87424803 6.16586133,9.65568748 5.99820117,9.49401561 C5.83054102,9.33234373 5.64491016,9.16767186 5.44130859,9 C5.34550781,8.91616405 5.26167773,8.79939842 5.18981836,8.64970311 C5.11795898,8.5 5.05209375,8.34731248 4.99222266,8.19161717 C4.93233984,8.01196873 4.87245703,7.82034959 4.81257422,7.61675975 C4.72873828,7.59280663 4.6449082,7.55089452 4.56108398,7.49102342 C4.48922461,7.43114061 4.41137695,7.34730467 4.32754102,7.23951561 C4.24370508,7.13172655 4.17185156,6.97604296 4.11198047,6.77246483 C4.04012109,6.56886327 4.01316797,6.38323241 4.03112109,6.21557225 C4.04907422,6.0479121 4.08201563,5.90419921 4.12994531,5.78443358 C4.17785156,5.6526914 4.25569336,5.52694335 4.3634707,5.40718944 C4.35149414,4.95209179 4.37544727,4.49699999 4.43533008,4.04191405 C4.48323633,3.65868749 4.57006055,3.24551367 4.69580273,2.80239257 C4.82154492,2.35927148 5.01016992,1.9640625 5.26167773,1.61676562 C5.4892207,1.28143359 5.74371094,1.00897851 6.02514844,0.799400389 C6.30658594,0.589822265 6.59401172,0.42515039 6.88742578,0.305384765 C7.18083984,0.18561914 7.47425391,0.104783203 7.76766797,0.062876953 C8.06108203,0.0209707031 8.34551367,0 8.62096289,0 Z" id="路径" fill="#556FF6"></path>
                    </g>
                </g>
            </g>
        </g>
    </g>
</svg>