<?xml version="1.0" encoding="UTF-8"?>
<svg width="24px" height="24px" viewBox="0 0 24 24" version="1.1" xmlns="http://www.w3.org/2000/svg" xmlns:xlink="http://www.w3.org/1999/xlink">
    <title>icon_add_folder</title>
    <defs>
        <path d="M3.3,4.65 L20.7,4.65 C21.5,4.65 21.9,5.05 21.9,5.85 L21.9,16.65 C21.9,17.45 21.5,17.85 20.7,17.85 L3.3,17.85 C2.5,17.85 2.1,17.45 2.1,16.65 L2.1,5.85 C2.1,5.05 2.5,4.65 3.3,4.65 Z" id="path-1"></path>
        <filter x="-15.2%" y="-22.7%" width="130.3%" height="145.5%" filterUnits="objectBoundingBox" id="filter-2">
            <feOffset dx="0" dy="0" in="SourceAlpha" result="shadowOffsetOuter1"></feOffset>
            <feGaussianBlur stdDeviation="1" in="shadowOffsetOuter1" result="shadowBlurOuter1"></feGaussianBlur>
            <feColorMatrix values="0 0 0 0 0   0 0 0 0 0   0 0 0 0 0  0 0 0 0.396798514 0" type="matrix" in="shadowBlurOuter1"></feColorMatrix>
        </filter>
        <path d="M4.19636364,6.81 L19.8036364,6.81 C20.5212121,6.81 20.88,7.21 20.88,8.01 L20.88,18.81 C20.88,19.61 20.5212121,20.01 19.8036364,20.01 L4.19636364,20.01 C3.47878788,20.01 3.12,19.61 3.12,18.81 L3.12,8.01 C3.12,7.21 3.47878788,6.81 4.19636364,6.81 Z" id="path-3"></path>
        <filter x="-16.9%" y="-22.7%" width="133.8%" height="145.5%" filterUnits="objectBoundingBox" id="filter-4">
            <feOffset dx="0" dy="0" in="SourceAlpha" result="shadowOffsetOuter1"></feOffset>
            <feGaussianBlur stdDeviation="1" in="shadowOffsetOuter1" result="shadowBlurOuter1"></feGaussianBlur>
            <feColorMatrix values="0 0 0 0 0   0 0 0 0 0   0 0 0 0 0  0 0 0 0.396798514 0" type="matrix" in="shadowBlurOuter1"></feColorMatrix>
        </filter>
    </defs>
    <g id="dummy" stroke="none" stroke-width="1" fill="none" fill-rule="evenodd">
        <g id="3.1_潛力技術文件管理" transform="translate(-830.000000, -213.000000)" fill-rule="nonzero">
            <g id="编组-2备份" transform="translate(820.000000, 204.000000)">
                <g id="icon_add_folder" transform="translate(10.000000, 9.000000)">
                    <g id="文件类型-标准图-文件夹">
                        <rect id="矩形" fill="#000000" opacity="0" x="0" y="0" width="24" height="24"></rect>
                        <path d="M0,3 C0,2.3372583 0.5372583,1.8 1.2,1.8 L9.40875,1.8 C9.88879679,1.8 10.3226441,2.08611603 10.5117188,2.52735938 L11.1,3.9 L22.8,3.9 C23.4627417,3.9 24,4.4372583 24,5.1 L24,17.7 C24,18.3627417 23.4627417,18.9 22.8,18.9 L1.2,18.9 C0.5372583,18.9 0,18.3627417 0,17.7 L0,3 Z" id="路径" fill="#1D18CF"></path>
                        <g id="路径">
                            <use fill="black" fill-opacity="1" filter="url(#filter-2)" xlink:href="#path-1"></use>
                            <use fill="#FFFFFF" xlink:href="#path-1"></use>
                        </g>
                        <g id="路径备份">
                            <use fill="black" fill-opacity="1" filter="url(#filter-4)" xlink:href="#path-3"></use>
                            <use fill="#FFFFFF" xlink:href="#path-3"></use>
                        </g>
                        <path d="M1.2,9 L22.8,9 C23.6,9 24,9.36666667 24,10.1 L24,21.1 C24,21.8333333 23.6,22.2 22.8,22.2 L1.2,22.2 C0.4,22.2 0,21.8333333 0,21.1 L0,10.1 C0,9.36666667 0.4,9 1.2,9 Z" id="路径" fill="#556FF6"></path>
                    </g>
                    <g id="add-fill" transform="translate(7.428571, 10.857143)">
                        <rect id="矩形" fill="#000000" opacity="0" x="0" y="0" width="9.14285714" height="9.14285714"></rect>
                        <path d="M4.57142857,0 C7.09620356,0 9.14285714,2.04665358 9.14285714,4.57142857 C9.14285714,7.09620356 7.09620356,9.14285714 4.57142857,9.14285714 C2.04665358,9.14285714 0,7.09620356 0,4.57142857 C0,2.04665358 2.04665358,0 4.57142857,0 Z M4.98701299,2.07792208 L4.15584416,2.07792208 L4.15584416,4.15557143 L2.07792208,4.15584416 L2.07792208,4.98701299 L4.15584416,4.98674026 L4.15584416,7.06493506 L4.98701299,7.06493506 L4.98701299,4.98701299 L7.06493506,4.98701299 L7.06493506,4.15584416 L4.98701299,4.15584416 L4.98701299,2.07792208 Z" id="形状" fill="#FFFFFF"></path>
                    </g>
                </g>
            </g>
        </g>
    </g>
</svg>