<?xml version="1.0" encoding="utf-8"?>
<!-- Generator: Adobe Illustrator 25.0.0, SVG Export Plug-In . SVG Version: 6.00 Build 0)  -->
<svg version="1.1" id="圖層_1" xmlns="http://www.w3.org/2000/svg" xmlns:xlink="http://www.w3.org/1999/xlink" x="0px" y="0px"
	 viewBox="0 0 18 18" style="enable-background:new 0 0 18 18;" xml:space="preserve">
<style type="text/css">
	.st0{fill-opacity:0;}
</style>
<rect id="矩形" class="st0" width="18" height="18"/>
<path id="形状" d="M0.6,1.4c0-0.4,0.3-0.7,0.7-0.7h15.3c0.3,0,0.5,0.1,0.6,0.4s0.1,0.5,0,0.7s-0.4,0.4-0.6,0.4H1.3
	C0.9,2.1,0.6,1.8,0.6,1.4L0.6,1.4z M9,3.4c0.4,0,0.7,0.3,0.7,0.7v12.5c0,0.4-0.3,0.7-0.7,0.7c-0.4,0-0.7-0.3-0.7-0.7V4.2
	C8.3,3.7,8.6,3.4,9,3.4L9,3.4z"/>
<path id="路径" d="M8.5,3.6C8.6,3.5,8.8,3.4,9,3.4c0.2,0,0.4,0.1,0.5,0.2L15,9.1c0.3,0.3,0.3,0.7,0,1c-0.3,0.3-0.7,0.3-1,0
	L8.5,4.7C8.3,4.5,8.3,4.4,8.3,4.2S8.3,3.8,8.5,3.6z"/>
<path id="路径_1_" d="M9.5,3.6C9.7,3.8,9.7,4,9.7,4.2S9.7,4.5,9.5,4.7L4,10.2c-0.2,0.2-0.5,0.3-0.7,0.2c-0.3-0.1-0.5-0.3-0.5-0.5
	C2.7,9.6,2.8,9.3,3,9.1l5.5-5.5C8.6,3.5,8.8,3.4,9,3.4C9.2,3.4,9.4,3.5,9.5,3.6L9.5,3.6z"/>
</svg>
