<?xml version="1.0" encoding="utf-8"?>
<!-- Generator: Adobe Illustrator 24.0.3, SVG Export Plug-In . SVG Version: 6.00 Build 0)  -->
<svg version="1.1" id="圖層_1" xmlns="http://www.w3.org/2000/svg" xmlns:xlink="http://www.w3.org/1999/xlink" x="0px" y="0px"
	 viewBox="0 0 24 24" style="enable-background:new 0 0 24 24;" xml:space="preserve">
<style type="text/css">
	.st0{fill-opacity:0;}
</style>
<title>icon_user</title>
<rect id="矩形" class="st0" width="24" height="24"/>
<path id="形状" d="M20.1,17.9c-0.4-1.1-1.1-2-1.9-2.8s-1.8-1.4-2.8-1.9c0,0,0,0,0,0c1.5-1.1,2.4-2.8,2.4-4.7
	c0-3.2-2.6-5.8-5.8-5.8S6.2,5.3,6.2,8.5c0,1.9,0.9,3.7,2.4,4.7c0,0,0,0,0,0c-1.1,0.4-2,1.1-2.8,1.9c-0.8,0.8-1.4,1.8-1.9,2.8
	c-0.4,1-0.7,2.1-0.7,3.2c0,0.1,0.1,0.2,0.2,0.2h1.4c0.1,0,0.2-0.1,0.2-0.2c0-1.8,0.8-3.5,2.1-4.8c1.3-1.3,3.1-2.1,5-2.1
	s3.6,0.7,5,2.1c1.3,1.3,2,3,2.1,4.8c0,0.1,0.1,0.2,0.2,0.2h1.4c0.1,0,0.2-0.1,0.2-0.2C20.8,20,20.6,18.9,20.1,17.9z M12,12.5
	c-1.1,0-2.1-0.4-2.9-1.2S8,9.6,8,8.5s0.4-2.1,1.2-2.8s1.8-1.2,2.9-1.2s2.1,0.4,2.9,1.2S16,7.4,16,8.5s-0.4,2.1-1.2,2.9
	S13.1,12.5,12,12.5z"/>
</svg>
