<?xml version="1.0" encoding="UTF-8"?>
<svg width="120px" height="120px" viewBox="0 0 120 120" version="1.1" xmlns="http://www.w3.org/2000/svg" xmlns:xlink="http://www.w3.org/1999/xlink">
    <title>icon_emailsend</title>
    <g id="dummy" stroke="none" stroke-width="1" fill="none" fill-rule="evenodd">
        <g id="2.3.4.3_建立完成、發送_建立完成、發送" transform="translate(-658.000000, -450.000000)" fill-rule="nonzero">
            <g id="modal备份" transform="translate(370.000000, 380.000000)">
                <g id="icon_emailsend" transform="translate(288.000000, 70.000000)">
                    <rect id="矩形" fill="#000000" opacity="0" x="0" y="0" width="120" height="120"></rect>
                    <path d="M62.428292,69.940457 L116.050799,19.994609 C116.99988,18.0918893 116.76264,15 112.966317,15 L6.90762395,15.2379305 C4.06050289,15.2379305 1.68774135,17.8539587 3.82314239,20.2324187 L57.4456494,69.9405778 C58.8693304,71.3675571 61.0047315,71.3675571 62.428292,69.940457 Z M117,39.4973045 C117,37.1189653 114.152758,35.6918651 112.254597,37.356775 L70.2581761,76.1242355 C67.4110551,78.7405053 63.8518525,80.1674847 60.0556509,80.1674847 C56.2594494,80.1674847 52.7003673,78.7405053 49.8531258,76.3621661 L8.09394447,37.356775 C6.19590393,35.6918651 3.34866238,36.8810347 3.34866238,39.4973045 C3.11130188,38.7837544 3.11130188,93.4864016 3.11130188,93.4864016 C3.11130188,98.7188203 7.38222445,103 12.602107,103 L107.509195,103 C112.729077,103 117,98.7188203 117,93.4864016 L117,39.4973045 L117,39.4973045 Z" id="形状" fill="#556FF6"></path>
                    <g id="对号" transform="translate(59.000000, 56.000000)">
                        <rect id="矩形" fill="#000000" opacity="0" x="0" y="0" width="56" height="56"></rect>
                        <path d="M28.5,4 C14.969,4 4,14.969 4,28.5 C4,42.031 14.969,53 28.5,53 C42.031,53 53,42.031 53,28.5 C53,14.969 42.031,4 28.5,4 Z" id="形状" fill="#5BDD72"></path>
                        <path d="M44.9748793,21.0965501 L27.4958,38.9321317 C27.4888549,38.93933 27.482402,38.9468632 27.4754022,38.9540058 C26.7918836,39.6514654 25.895965,40 25.0000465,40 C24.1041826,40 23.2082641,39.6514654 22.5246908,38.9540058 C22.517691,38.9468632 22.511238,38.93933 22.5042929,38.9321317 L12.0251139,28.2391083 C10.6582954,26.8444122 10.6582954,24.5832345 12.0251139,23.1885384 C13.3918777,21.7938981 15.6079131,21.7938981 16.9747316,23.1885384 L25.0001012,31.3776488 L40.0253162,16.0459802 C41.3921348,14.6513399 43.6081154,14.6513399 44.974934,16.0459802 C46.3416978,17.4406763 46.3416978,19.7019098 44.9748793,21.0965501 Z" id="路径" fill="#FFFFFF"></path>
                    </g>
                </g>
            </g>
        </g>
    </g>
</svg>