<?xml version="1.0" encoding="UTF-8"?>
<svg width="100px" height="100px" viewBox="0 0 100 100" version="1.1" xmlns="http://www.w3.org/2000/svg" xmlns:xlink="http://www.w3.org/1999/xlink">
    <title>icon_upload</title>
    <g id="dummy" stroke="none" stroke-width="1" fill="none" fill-rule="evenodd">
        <g id="2.3.4_相關意見、檔案上傳" transform="translate(-794.000000, -831.000000)" fill-rule="nonzero">
            <g id="icon_upload" transform="translate(794.000000, 831.000000)">
                <rect id="矩形" fill="#000000" opacity="0" x="0" y="0" width="100" height="100"></rect>
                <path d="M74.9724609,25.0275391 C74.7519531,24.9724609 74.5314453,24.862207 74.4211914,24.6416992 C70.0110352,13.1202148 60.6946289,5.78828125 46.6373047,5.78828125 C28.7761719,5.78828125 16.2073242,19.184082 14.9393555,36.659375 C14.9393555,36.9349609 14.7740234,37.1554687 14.4983398,37.2105469 C6.06396484,40.1875 0,49.1179687 0,59.1509766 C0,71.609668 9.64716797,82.1389648 21.1135742,82.1389648 L30.1543945,82.1389648 C31.8632813,82.1389648 33.296582,80.7056641 33.296582,78.9416016 C33.296582,77.1775391 31.918457,75.7442383 30.1543945,75.7442383 L21.1135742,75.7442383 C13.0650391,75.7442383 6.17412109,68.1367187 6.17412109,59.0958984 C6.17412109,51.1025391 11.6868164,43.880957 18.5777344,42.6681641 L20.8378906,42.2822266 C21.1686523,42.2271484 21.3891602,41.8963867 21.3891602,41.565625 L21.1686523,39.2501953 L21.1686523,39.1951172 C21.1686523,23.8147461 31.1466797,12.1279297 46.6373047,12.1279297 C59.0408203,12.1279297 66.0418945,18.3572266 69.2392578,28.9416016 L69.7905273,30.6505859 C69.9007813,30.9261719 70.1212891,31.0915039 70.3969727,31.0915039 L72.1609375,31.1466797 C83.7927734,31.3671875 93.9360352,40.9591797 93.9360352,52.8666016 C93.9360352,63.6714844 86.8797852,75.7442383 76.1852539,75.7442383 L69.01875,75.7442383 C67.3097656,75.7442383 65.8765625,77.1775391 65.8765625,78.9415039 C65.8765625,80.7056641 67.2546875,82.1389648 69.01875,82.1389648 L76.1300781,82.1389648 C91.7861328,81.6979492 99.8905618,66.5380859 99.8905618,52.9216797 C100,38.3682617 88.9195313,26.7365234 74.9724609,25.0275391 Z M52.3704102,50.2755859 L51.5435547,49.3936523 C51.1025391,48.9526367 50.5512695,48.6769531 49.9449219,48.6769531 C49.3936523,48.6769531 48.787207,48.8974609 48.3461914,49.3936523 L47.5744141,50.2205078 C47.5744141,50.2205078 47.5744141,50.2755859 47.5193359,50.2755859 L36.2182617,62.9547852 C35.3914063,63.8368164 35.3362305,65.325293 36.1631836,66.2624023 C36.2182617,66.3175781 36.2734375,66.3726562 36.3285156,66.3726562 L37.0452148,66.86875 C37.9272461,67.805957 39.3605469,67.4751953 40.1874023,66.5931641 L45.7000977,60.3638672 C46.0860352,59.9228516 46.8578125,60.1984375 46.8578125,60.8048828 L46.8578125,91.0695312 C46.8578125,92.8334961 48.2359375,94.2667969 50,94.2667969 C51.7089844,94.2667969 53.1421875,92.8334961 53.1421875,91.0695312 L53.1421875,60.8048828 C53.1421875,60.1984375 53.9139648,59.9228516 54.2999023,60.3638672 L60.0331055,66.7584961 C60.9151367,67.6957031 62.2932617,67.9713867 63.175293,67.0341797 L63.8919922,66.5380859 C63.9470703,66.4829102 64.0022461,66.4829102 64.0573242,66.4277344 C64.8842773,65.490625 64.8291016,64.0573242 64.0022461,63.1201172 L52.3704102,50.2755859 L52.3704102,50.2755859 Z" id="形状" fill="#A9B0C7"></path>
            </g>
        </g>
    </g>
</svg>