<?xml version="1.0" encoding="UTF-8"?>
<svg width="24px" height="24px" viewBox="0 0 24 24" version="1.1" xmlns="http://www.w3.org/2000/svg" xmlns:xlink="http://www.w3.org/1999/xlink">
    <title>icon_folder_normal</title>
    <g id="dummy" stroke="none" stroke-width="1" fill="none" fill-rule="evenodd">
        <g id="2.3.2_選擇技術擁有者相關技術_政府補助計畫" transform="translate(-782.000000, -306.000000)" fill-rule="nonzero">
            <g id="bn_搜尋" transform="translate(770.000000, 301.000000)">
                <g id="icon_folder_normal" transform="translate(12.000000, 5.000000)">
                    <rect id="矩形" fill="#000000" opacity="0" x="0" y="0" width="24" height="24"></rect>
                    <path d="M20.765625,4.45546875 L10.275,4.45546875 L8.015625,3.0984375 C7.8609375,3.0046875 7.6828125,2.95546875 7.5,2.95546875 L3.16640625,2.95546875 C1.95234375,2.95546875 0.965625,3.9421875 0.965625,5.15625 L0.965625,18.7570313 C0.965625,19.9710938 1.95234375,20.9578125 3.16640625,20.9578125 L20.765625,20.9578125 C21.9796875,20.9578125 22.9664062,19.9710938 22.9664062,18.7570313 L22.9664062,6.65625 C22.9664062,5.4421875 21.9796875,4.45546875 20.765625,4.45546875 Z M3.16640625,4.9546875 L7.2234375,4.9546875 L9.48515625,6.31171875 C9.63984375,6.40546875 9.81796875,6.4546875 10.0007813,6.4546875 L20.765625,6.4546875 C20.8757813,6.4546875 20.9648438,6.54375 20.9648438,6.65390625 L20.9648438,7.49765625 L2.96484375,7.49765625 L2.96484375,5.15625 C2.9671875,5.04609375 3.05625,4.9546875 3.16640625,4.9546875 Z M20.765625,18.95625 L3.16640625,18.95625 C3.05625,18.95625 2.9671875,18.8671875 2.9671875,18.7570313 L2.9671875,9.49921875 L20.9671875,9.49921875 L20.9671875,18.7570313 C20.9671875,18.8648437 20.8757813,18.95625 20.765625,18.95625 Z" id="形状" fill="#556FF6"></path>
                </g>
            </g>
        </g>
    </g>
</svg>