<?xml version="1.0" encoding="UTF-8"?>
<svg width="24px" height="24px" viewBox="0 0 24 24" version="1.1" xmlns="http://www.w3.org/2000/svg" xmlns:xlink="http://www.w3.org/1999/xlink">
    <title>icon_add_hover</title>
    <g id="dummy" stroke="none" stroke-width="1" fill="none" fill-rule="evenodd">
        <g id="2.1_搜尋檢索" transform="translate(-1305.000000, -169.000000)" fill-rule="nonzero">
            <g id="icon_add_hover" transform="translate(1305.000000, 169.000000)">
                <rect id="矩形" fill="#000000" opacity="0" x="0" y="0" width="24" height="24"></rect>
                <path d="M12.0001641,23.9200781 C5.416875,23.9200781 0.0799921875,18.5824688 0.0799921875,12.0000703 C0.0799921875,5.41767187 5.416875,0.079921875 12.0001641,0.079921875 C18.5834531,0.079921875 23.9200078,5.41680469 23.9200078,12.0000703 C23.9200078,18.5835234 18.5825625,23.9200781 12.0001641,23.9200781 Z M18.5223281,11.3252812 C18.5223281,11.0776159 18.3215169,10.8768564 18.0738516,10.8768047 L13.1247187,10.8768047 L13.1247187,5.92767187 C13.1247187,5.67998511 12.923929,5.4791953 12.6762422,5.4791953 L11.3256094,5.4791953 C11.2066498,5.4791953 11.0925539,5.52640954 11.008428,5.61051791 C10.924302,5.69462627 10.8770391,5.80871225 10.8770391,5.92767187 L10.8770391,10.87575 L5.92774219,10.87575 C5.80878662,10.8757562 5.69470667,10.9230219 5.61060337,11.0071472 C5.52650007,11.0912724 5.47928905,11.2053648 5.47928905,11.3243203 L5.47928905,12.6738516 C5.47928905,12.9215383 5.68007886,13.1223281 5.92776563,13.1223281 L10.8759141,13.1223281 L10.8759141,18.0723281 C10.8758954,18.1912837 10.9231373,18.3053735 11.0072449,18.3894944 C11.0913526,18.4736153 11.2054351,18.520875 11.3243906,18.520875 L12.6739219,18.520875 C12.9216421,18.520875 13.1224558,18.3200484 13.1224688,18.0723281 L13.1224688,13.1246484 L18.0724687,13.1246484 C18.1914162,13.1246298 18.3054841,13.0773586 18.3895773,12.9932347 C18.4736704,12.9091108 18.5208999,12.7950256 18.520875,12.6760781 L18.5223281,11.3252812 Z" id="icon" fill="#2949F2"></path>
            </g>
        </g>
    </g>
</svg>