<?xml version="1.0" encoding="UTF-8"?>
<svg width="24px" height="24px" viewBox="0 0 24 24" version="1.1" xmlns="http://www.w3.org/2000/svg" xmlns:xlink="http://www.w3.org/1999/xlink">
    <title>icon_close</title>
    <g id="dummy" stroke="none" stroke-width="1" fill="none" fill-rule="evenodd">
        <g id="2.3_有商化意願_帶領實驗室投入創業(自行創業)" transform="translate(-1316.000000, -369.000000)" fill="#000000" fill-rule="nonzero">
            <g id="modal" transform="translate(80.000000, 349.000000)">
                <g id="modal/header" transform="translate(190.000000, 20.000000)">
                    <g id="icon_close" transform="translate(1046.000000, 0.000000)">
                        <rect id="矩形" opacity="0" x="0" y="0" width="24" height="24"></rect>
                        <path d="M13.3714219,12 L20.2285781,5.14286719 C20.5714219,4.8 20.5714219,4.11428906 20.2285781,3.77142188 C19.8857051,3.42857813 19.2,3.42857813 18.8571328,3.77142188 L12,10.6285781 L5.14286719,3.77142188 C4.8,3.42857813 4.11428906,3.42857813 3.77142188,3.77142188 C3.25713281,4.11428906 3.25713281,4.8 3.77142188,5.14286719 L10.6285781,12 L3.77142188,18.8571328 C3.42857813,19.2 3.42857813,19.8857109 3.77142188,20.2285781 C4.11428906,20.5714219 4.8,20.5714219 5.14286719,20.2285781 L12,13.3714219 L18.8571328,20.2285781 C19.2,20.5714219 19.8857051,20.5714219 20.2285781,20.2285781 C20.5714219,19.8857109 20.5714219,19.2 20.2285781,18.8571328 L13.3714219,12 Z" id="路径"></path>
                    </g>
                </g>
            </g>
        </g>
    </g>
</svg>