<?xml version="1.0" encoding="utf-8"?>
<!-- Generator: Adobe Illustrator 25.0.0, SVG Export Plug-In . SVG Version: 6.00 Build 0)  -->
<svg version="1.1" id="圖層_1" xmlns="http://www.w3.org/2000/svg" xmlns:xlink="http://www.w3.org/1999/xlink" x="0px" y="0px"
	 viewBox="0 0 24 24" style="enable-background:new 0 0 24 24;" xml:space="preserve">
<style type="text/css">
	.st0{fill-opacity:0;}
</style>
<rect id="矩形" class="st0" width="24" height="24"/>
<path id="形状" d="M12,23.9C5.4,23.9,0.1,18.6,0.1,12S5.4,0.1,12,0.1S23.9,5.4,23.9,12C23.9,18.6,18.6,23.9,12,23.9z M18.5,11.3
	c0-0.2-0.2-0.4-0.4-0.4h-4.9l-2.2,0H5.9c-0.1,0-0.2,0-0.3,0.1c-0.1,0.1-0.1,0.2-0.1,0.3v1.3c0,0.2,0.2,0.4,0.4,0.4h4.9l2.2,0h4.9
	c0.1,0,0.2,0,0.3-0.1s0.1-0.2,0.1-0.3L18.5,11.3z"/>
</svg>
