<?xml version="1.0" encoding="UTF-8"?>
<svg width="16px" height="16px" viewBox="0 0 16 16" version="1.1" xmlns="http://www.w3.org/2000/svg" xmlns:xlink="http://www.w3.org/1999/xlink">
    <title>icon_download</title>
    <g id="dummy" stroke="none" stroke-width="1" fill="none" fill-rule="evenodd">
        <g id="2.1_搜尋檢索" transform="translate(-1326.000000, -607.000000)" fill-rule="nonzero">
            <g id="编组-10" transform="translate(1310.000000, 601.000000)">
                <g id="icon_download" transform="translate(16.000000, 6.000000)">
                    <rect id="矩形" fill="#000000" opacity="0" x="0" y="0" width="16" height="16"></rect>
                    <path d="M7.61328125,11.9234375 C7.7234375,12.0335937 7.86875,12.0921875 8.0234375,12.0921875 C8.178125,12.0921875 8.3234375,12.03125 8.43359375,11.9234375 L13.2007812,7.15625 C13.3109375,7.04609375 13.3695312,6.90078125 13.3695312,6.74609375 C13.3695312,6.59140625 13.3085937,6.44609375 13.2007812,6.3359375 C12.9828125,6.11796875 12.6007812,6.11796875 12.3828125,6.3359375 L8.60234375,10.1164062 L8.60234375,1.12578125 C8.60234375,0.80703125 8.3421875,0.546875 8.0234375,0.546875 C7.7046875,0.546875 7.44453125,0.80703125 7.44453125,1.12578125 L7.44453125,10.1164062 L3.6640625,6.3359375 C3.44375,6.11796875 3.0640625,6.11796875 2.84609375,6.3359375 C2.7359375,6.44609375 2.67734375,6.59140625 2.67734375,6.74609375 C2.67734375,6.90078125 2.73828125,7.04609375 2.84609375,7.15625 L7.61328125,11.9234375 Z" id="路径" fill="#FFFFFF"></path>
                    <path d="M14.6375,10.8359375 C14.31875,10.8359375 14.0585938,11.0960937 14.0585938,11.4148438 L14.0585938,13.8476562 C14.0585938,14.046875 13.9015625,14.2085937 13.7070313,14.2085937 L2.33984375,14.2085937 C2.1453125,14.2085937 1.98828125,14.046875 1.98828125,13.8476562 L1.98828125,11.4148438 C1.98828125,11.0960937 1.728125,10.8359375 1.409375,10.8359375 C1.090625,10.8359375 0.83046875,11.0960937 0.83046875,11.4148438 L0.83046875,14.1382813 C0.83046875,14.815625 1.38125,15.3664063 2.05859375,15.3664063 L13.990625,15.3664063 C14.6679688,15.3664063 15.21875,14.815625 15.21875,14.1382813 L15.21875,11.4148438 C15.2164063,11.0960937 14.95625,10.8359375 14.6375,10.8359375 Z" id="路径" fill="#FFFFFF"></path>
                </g>
            </g>
        </g>
    </g>
</svg>