<?xml version="1.0" encoding="utf-8"?>
<!-- Generator: Adobe Illustrator 24.0.3, SVG Export Plug-In . SVG Version: 6.00 Build 0)  -->
<svg version="1.1" id="圖層_1" xmlns="http://www.w3.org/2000/svg" xmlns:xlink="http://www.w3.org/1999/xlink" x="0px" y="0px"
	 viewBox="0 0 38 38" style="enable-background:new 0 0 38 38;" xml:space="preserve">
<style type="text/css">
	.st0{fill:none;stroke:#000000;}
	.st1{fill-opacity:0;}
</style>
<title>icon_tercher</title>
<circle id="椭圆形" class="st0" cx="19" cy="19" r="18.5"/>
<rect id="矩形" x="10" y="10" class="st1" width="18" height="18"/>
<path id="路径" d="M18.6,10c0.3,0,0.7,0,1,0.1s0.7,0.2,1,0.3c0.3,0.1,0.6,0.3,0.8,0.4c0.2,0.2,0.4,0.3,0.5,0.5
	c0.3,0.4,0.5,0.8,0.7,1.3c0.1,0.5,0.2,0.9,0.3,1.3c0.1,0.5,0.1,1,0.1,1.5c0.1,0.1,0.1,0.1,0.2,0.2c0,0.1,0.1,0.2,0.1,0.3
	c0,0.1,0,0.3,0,0.5c0,0.3-0.1,0.5-0.2,0.6c-0.1,0.1-0.2,0.3-0.3,0.4c-0.1,0.1-0.2,0.2-0.3,0.2c-0.1,0.2-0.1,0.4-0.2,0.6
	c-0.1,0.2-0.1,0.3-0.2,0.5c-0.1,0.1-0.2,0.3-0.3,0.4c-0.2,0.2-0.4,0.3-0.6,0.5s-0.2,0.3-0.3,0.6c0,0.2,0,0.4,0,0.5
	c0,0.2,0.1,0.4,0.2,0.6s0.2,0.4,0.4,0.5c0.2,0.2,0.4,0.3,0.8,0.4c0.3,0.1,0.6,0.2,1,0.3c0.4,0.1,0.7,0.2,1,0.3
	c0.3,0.1,0.6,0.3,0.9,0.5c0.3,0.2,0.4,0.4,0.5,0.8c0.1,0.2,0.1,0.4,0.1,0.7s0,0.6,0,0.9s0,0.6-0.1,0.8c0,0.3-0.1,0.4-0.2,0.6
	c-0.1,0.1-0.2,0.2-0.5,0.3c-0.3,0.1-0.6,0.2-1,0.2c-0.4,0.1-0.9,0.1-1.4,0.2s-1,0.1-1.5,0.2c-0.5,0-1,0.1-1.5,0.1
	c-0.5,0-0.9,0-1.2,0s-0.8,0-1.2,0c-0.5,0-0.9-0.1-1.4-0.1c-0.5,0-1-0.1-1.5-0.1c-0.5-0.1-0.9-0.1-1.3-0.2c-0.4-0.1-0.7-0.1-1-0.2
	c-0.3-0.1-0.4-0.1-0.5-0.2c-0.1-0.1-0.2-0.4-0.3-0.9c-0.1-0.5,0-1.1,0.1-1.9c0.1-0.4,0.2-0.8,0.5-1c0.3-0.2,0.6-0.4,1-0.6
	c0.4-0.1,0.8-0.3,1.2-0.4c0.4-0.1,0.8-0.3,1.1-0.5c0.3-0.2,0.4-0.3,0.6-0.4s0.2-0.3,0.3-0.4c0.1-0.1,0.1-0.3,0.1-0.4s0-0.3,0-0.5
	c0-0.3-0.1-0.5-0.3-0.7c-0.2-0.2-0.4-0.3-0.6-0.5c-0.1-0.1-0.2-0.2-0.3-0.4c-0.1-0.1-0.1-0.3-0.2-0.5c-0.1-0.2-0.1-0.4-0.2-0.6
	c-0.1,0-0.2-0.1-0.3-0.1c-0.1-0.1-0.1-0.1-0.2-0.3c-0.1-0.1-0.2-0.3-0.2-0.5C14,16.6,14,16.4,14,16.2s0.1-0.3,0.1-0.4
	c0-0.1,0.1-0.3,0.2-0.4c0-0.5,0-0.9,0.1-1.4c0-0.4,0.1-0.8,0.3-1.2s0.3-0.8,0.6-1.2c0.2-0.3,0.5-0.6,0.8-0.8
	c0.3-0.2,0.6-0.4,0.9-0.5c0.3-0.1,0.6-0.2,0.9-0.2S18.3,10,18.6,10z"/>
</svg>
