<?xml version="1.0" encoding="UTF-8"?>
<svg width="13.7142857px" height="13.7142857px" viewBox="0 0 13.7142857 13.7142857" version="1.1" xmlns="http://www.w3.org/2000/svg" xmlns:xlink="http://www.w3.org/1999/xlink">
    <title>icon_notification_s</title>
    <g id="dummy" stroke="none" stroke-width="1" fill="none" fill-rule="evenodd">
        <g id="3.2_技術摘要文件" transform="translate(-655.142857, -326.142857)" fill-rule="nonzero">
            <g id="编组-2备份-8" transform="translate(650.000000, 321.000000)">
                <g id="icon_notification_s" transform="translate(5.142857, 5.142857)">
                    <rect id="矩形" fill="#000000" opacity="0" x="0" y="0" width="13.7142857" height="13.7142857"></rect>
                    <path d="M8.28571875,11.7142902 C8.28571873,12.5032708 7.64612352,13.142866 6.85714286,13.142866 C6.06816219,13.142866 5.42856698,12.5032708 5.42856696,11.7142902 L1.14285268,11.7142902 C0.652004464,11.7142902 0.389424107,11.136 0.712861607,10.7665714 L2.14771875,9.12657589 C2.36856696,8.87428125 2.57142857,8.33428125 2.57142857,7.99913839 L2.57142857,4.85714732 C2.57142857,2.49028125 4.49029018,0.571433036 6.85714286,0.571433036 C9.22399554,0.571433036 11.1428571,2.49028125 11.1428571,4.85714732 L11.1428571,7.99913839 C11.1428571,8.33485714 11.3457187,8.874 11.566567,9.12657589 L13.0014241,10.7665714 C13.3248616,11.136 13.0622812,11.7142902 12.571433,11.7142902 L8.28571875,11.7142902 Z M10.7065714,9.87914732 C10.3028571,9.41828571 10.0000045,8.61171429 10.0000045,7.99913839 L10.0000045,4.85714732 C10.0000045,3.12143304 8.59285714,1.71428571 6.85714286,1.71428571 C5.12142857,1.71428571 3.71428125,3.12143304 3.71428125,4.85714732 L3.71428125,7.99913839 C3.71428125,8.61113839 3.41085268,9.41856696 3.00771429,9.87914732 L2.40199554,10.5714241 L11.3119955,10.5714241 L10.7062902,9.87914732 L10.7065714,9.87914732 Z" id="形状" fill="#FFFFFF"></path>
                </g>
            </g>
        </g>
    </g>
</svg>