<?xml version="1.0" encoding="UTF-8"?>
<svg width="18px" height="18px" viewBox="0 0 18 18" version="1.1" xmlns="http://www.w3.org/2000/svg" xmlns:xlink="http://www.w3.org/1999/xlink">
    <title>icon_progress_check</title>
    <g id="dummy" stroke="none" stroke-width="1" fill="none" fill-rule="evenodd">
        <g id="2.3.2_選擇技術擁有者相關技術_政府補助計畫" transform="translate(-468.000000, -133.000000)" fill-rule="nonzero">
            <g id="编组-10" transform="translate(465.000000, 130.000000)">
                <g id="icon_progress_check" transform="translate(3.000000, 3.000000)">
                    <rect id="矩形" fill="#000000" opacity="0" x="0" y="0" width="18" height="18"></rect>
                    <path d="M6.61153711,14.7115371 L0.9,8.96538867 C0.692314453,8.75768555 0.692314453,8.41153711 0.9,8.20385156 L1.66153711,7.44231445 C1.86922266,7.23461133 2.21538867,7.23461133 2.42307422,7.44231445 L6.71538867,11.7692227 C6.85385156,11.9076855 7.09614844,11.9076855 7.23461133,11.7692227 L15.6461484,3.28846289 C15.8538516,3.08077734 16.2,3.08077734 16.4076855,3.28846289 L17.1692227,4.05 C17.3769258,4.25768555 17.3769258,4.60385156 17.1692227,4.81153711 L7.37307422,14.7115371 C7.16538867,14.9538516 6.81922266,14.9538516 6.61153711,14.7115371 Z" id="路径" fill="#FFFFFF"></path>
                </g>
            </g>
        </g>
    </g>
</svg>