<?xml version="1.0" encoding="utf-8"?>
<!-- Generator: Adobe Illustrator 25.0.0, SVG Export Plug-In . SVG Version: 6.00 Build 0)  -->
<svg version="1.1" id="圖層_1" xmlns="http://www.w3.org/2000/svg" xmlns:xlink="http://www.w3.org/1999/xlink" x="0px" y="0px"
	 viewBox="0 0 24 24" style="enable-background:new 0 0 24 24;" xml:space="preserve">
<style type="text/css">
	.st0{fill-opacity:0;}
</style>
<g id="dummy">
	<g id="_x32_.1_x5F_搜尋檢索" transform="translate(-20.000000, -453.000000)">
		<g id="icon_cooperate_mormal" transform="translate(20.000000, 453.000000)">
			<rect id="矩形" class="st0" width="24" height="24"/>
			<path id="形状" d="M12.3,14c1.6-1.1,2.7-2.9,2.7-5c0-3.3-2.7-6-6-6S3,5.7,3,9c0,2.1,1.1,3.9,2.7,5C2.4,15.1,0,17.9,0,21.8
				c0,0.4,0.3,0.8,0.8,0.8s0.8-0.3,0.8-0.8C1.5,17.6,4.9,15,9,15s7.5,2.6,7.5,6.8c0,0.4,0.3,0.8,0.8,0.8s0.8-0.3,0.8-0.8
				C18,17.9,15.6,15.1,12.3,14z M9,13.5c-2.5,0-4.5-2-4.5-4.5s2-4.5,4.5-4.5s4.5,2,4.5,4.5S11.5,13.5,9,13.5z M18.9,14.1
				c1.7-1.1,2.9-2.9,2.9-5.1c0-3.3-2.7-6-6-6C15.3,3,15,3.3,15,3.8s0.3,0.8,0.8,0.8c2.5,0,4.5,2,4.5,4.5c0,1.7-0.9,3.1-2.2,3.9
				c-1.3,0.8-1.7,1.9,0,2.6c2.6,0.9,4.5,3.4,4.5,6.3c0,0.4,0.3,0.8,0.8,0.8s0.8-0.3,0.8-0.8C24,18.3,21.9,15.3,18.9,14.1L18.9,14.1z
				"/>
		</g>
	</g>
</g>
</svg>
