<?xml version="1.0" encoding="utf-8"?>
<!-- Generator: Adobe Illustrator 25.0.0, SVG Export Plug-In . SVG Version: 6.00 Build 0)  -->
<svg version="1.1" id="圖層_1" xmlns="http://www.w3.org/2000/svg" xmlns:xlink="http://www.w3.org/1999/xlink" x="0px" y="0px"
	 viewBox="0 0 24 24" style="enable-background:new 0 0 24 24;" xml:space="preserve">
<style type="text/css">
	.st0{fill-opacity:0;}
</style>
<g id="dummy">
	<g id="_x32_.1_x5F_搜尋檢索" transform="translate(-20.000000, -130.000000)">
		<g id="icon_dashboard_normal" transform="translate(20.000000, 130.000000)">
			<rect id="矩形" class="st0" width="24" height="24"/>
			<path id="形状" d="M21.7,9c-0.5-1.3-1.3-2.4-2.2-3.3c-1-1-2.1-1.7-3.3-2.2c-1.3-0.5-2.7-0.8-4.1-0.8S9.2,2.9,7.9,3.5
				C6.7,4,5.5,4.7,4.6,5.7S2.9,7.8,2.3,9c-0.5,1.3-0.8,2.7-0.8,4.1c0,3.1,1.4,6,3.7,8l0,0c0.1,0.1,0.3,0.2,0.5,0.2h12.5
				c0.2,0,0.3-0.1,0.5-0.2l0,0c2.4-2,3.7-4.9,3.7-8C22.5,11.7,22.2,10.3,21.7,9z M17.8,19.6H6.2c-1.8-1.7-2.9-4-2.9-6.5
				c0-2.3,0.9-4.5,2.6-6.2C7.5,5.3,9.7,4.4,12,4.4c2.3,0,4.5,0.9,6.2,2.6c1.6,1.6,2.6,3.8,2.6,6.2C20.7,15.6,19.7,17.9,17.8,19.6z
				 M14.6,9.9c-0.1-0.1-0.2-0.1-0.3,0l-2,2c-0.4-0.1-0.9,0-1.3,0.3c-0.5,0.5-0.5,1.3,0,1.9c0.5,0.5,1.3,0.5,1.9,0
				c0.3-0.3,0.5-0.8,0.3-1.3l2-2c0.1-0.1,0.1-0.2,0-0.3L14.6,9.9L14.6,9.9z M11.5,7.5h1c0.1,0,0.2-0.1,0.2-0.2V5.4
				c0-0.1-0.1-0.2-0.2-0.2h-1c-0.1,0-0.2,0.1-0.2,0.2v1.9C11.3,7.4,11.4,7.5,11.5,7.5z M17.6,12.6v1c0,0.1,0.1,0.2,0.2,0.2h1.9
				c0.1,0,0.2-0.1,0.2-0.2v-1c0-0.1-0.1-0.2-0.2-0.2h-1.9C17.7,12.4,17.6,12.5,17.6,12.6z M17.9,8l-0.7-0.7c-0.1-0.1-0.2-0.1-0.3,0
				l-1.3,1.3c-0.1,0.1-0.1,0.2,0,0.3l0.7,0.7c0.1,0.1,0.2,0.1,0.3,0l1.3-1.3C17.9,8.2,17.9,8.1,17.9,8z M7.1,7.3
				c-0.1-0.1-0.2-0.1-0.3,0L6.1,8c-0.1,0.1-0.1,0.2,0,0.3l1.3,1.3c0.1,0.1,0.2,0.1,0.3,0l0.7-0.7c0.1-0.1,0.1-0.2,0-0.3L7.1,7.3z
				 M6.1,12.4H4.3c-0.1,0-0.2,0.1-0.2,0.2v1c0,0.1,0.1,0.2,0.2,0.2h1.9c0.1,0,0.2-0.1,0.2-0.2v-1C6.3,12.5,6.2,12.4,6.1,12.4z"/>
		</g>
	</g>
</g>
</svg>
