<?xml version="1.0" encoding="utf-8"?>
<!-- Generator: Adobe Illustrator 25.0.0, SVG Export Plug-In . SVG Version: 6.00 Build 0)  -->
<svg version="1.1" id="圖層_1" xmlns="http://www.w3.org/2000/svg" xmlns:xlink="http://www.w3.org/1999/xlink" x="0px" y="0px"
	 viewBox="0 0 24 24" style="enable-background:new 0 0 24 24;" xml:space="preserve">
<style type="text/css">
	.st0{fill-opacity:0;}
</style>
<g id="dummy">
	<g id="_x32_.1_x5F_搜尋檢索" transform="translate(-20.000000, -401.000000)">
		<g id="icon_convert_normal" transform="translate(20.000000, 401.000000)">
			<rect id="矩形" class="st0" width="24" height="24"/>
			<path id="形状" d="M7.8,16C7.3,16,7,16.3,7,16.8s0.3,0.8,0.8,0.8s0.8-0.3,0.8-0.8S8.2,16,7.8,16z M7.8,7C7.3,7,7,7.3,7,7.8
				s0.3,0.8,0.8,0.8s0.8-0.3,0.8-0.8S8.2,7,7.8,7z M7.8,11.5c-0.4,0-0.8,0.3-0.8,0.8S7.3,13,7.8,13s0.8-0.3,0.8-0.8
				S8.2,11.5,7.8,11.5z M19,2.5H5.5c-1.7,0-3,1.3-3,3V19c0,1.6,1.3,3,3,3H19c1.6,0,3-1.4,3-3V5.5C22,3.8,20.6,2.5,19,2.5z M20.5,19
				c0,0.8-0.7,1.5-1.5,1.5H5.5C4.7,20.5,4,19.8,4,19V5.5C4,4.7,4.7,4,5.5,4H19c0.8,0,1.5,0.7,1.5,1.5V19z M16.8,7h-6
				C10.3,7,10,7.3,10,7.8s0.3,0.8,0.8,0.8h6c0.4,0,0.8-0.3,0.8-0.8S17.2,7,16.8,7z M16.8,11.5h-6c-0.4,0-0.8,0.3-0.8,0.8
				s0.3,0.8,0.8,0.8h6c0.4,0,0.8-0.3,0.8-0.8S17.2,11.5,16.8,11.5z M16.8,16h-6c-0.4,0-0.8,0.3-0.8,0.8s0.3,0.8,0.8,0.8h6
				c0.4,0,0.8-0.3,0.8-0.8S17.2,16,16.8,16z"/>
		</g>
	</g>
</g>
</svg>
