<?xml version="1.0" encoding="utf-8"?>
<!-- Generator: Adobe Illustrator 25.0.0, SVG Export Plug-In . SVG Version: 6.00 Build 0)  -->
<svg version="1.1" id="圖層_1" xmlns="http://www.w3.org/2000/svg" xmlns:xlink="http://www.w3.org/1999/xlink" x="0px" y="0px"
	 viewBox="0 0 24 24" style="enable-background:new 0 0 24 24;" xml:space="preserve">
<style type="text/css">
	.st0{fill-opacity:0;}
</style>
<rect id="矩形" class="st0" width="24" height="24"/>
<path id="形状" d="M21.7,10.9c-0.1-5.4-4.3-9.7-9.4-9.7h-0.8c-5.1,0-9.3,4.3-9.4,9.7c-0.9,0.5-1.5,1.5-1.5,2.6V15c0,1.7,1.3,3,3,3
	s3-1.3,3-3v-1.5c0-1.6-1.3-3-3-3c0.3-4.3,3.7-7.8,7.8-7.8h0.8c4.2,0,7.6,3.4,7.8,7.8c-1.6,0-3,1.4-3,3V15c0,1.4,0.9,2.5,2.1,2.9
	c-1.1,1.5-2.7,2.5-4.5,2.9c-0.3-0.8-1-1.3-1.8-1.3c-1,0-1.9,0.8-1.9,1.9s0.8,1.9,1.9,1.9c0.6,0,1.3-0.3,1.6-0.9
	c2.7-0.5,5.1-2.1,6.5-4.5c1.2-0.4,2-1.5,2-2.8v-1.5C23.2,12.4,22.6,11.4,21.7,10.9z M5.2,13.5V15c0,0.8-0.7,1.5-1.5,1.5
	S2.2,15.8,2.2,15v-1.5c0-0.8,0.7-1.5,1.5-1.5S5.2,12.7,5.2,13.5z M21.8,15c0,0.8-0.6,1.5-1.4,1.5l-0.1,0c0,0,0,0,0,0
	c-0.8,0-1.5-0.7-1.5-1.5v-1.5c0-0.8,0.7-1.5,1.5-1.5s1.5,0.7,1.5,1.5V15z"/>
</svg>
