<?xml version="1.0" encoding="utf-8"?>
<!-- Generator: Adobe Illustrator 25.0.0, SVG Export Plug-In . SVG Version: 6.00 Build 0)  -->
<svg version="1.1" id="圖層_1" xmlns="http://www.w3.org/2000/svg" xmlns:xlink="http://www.w3.org/1999/xlink" x="0px" y="0px"
	 viewBox="0 0 24 24" style="enable-background:new 0 0 24 24;" xml:space="preserve">
<style type="text/css">
	.st0{fill-opacity:0;}
</style>
<g id="dummy">
	<g id="_x32_.1_x5F_搜尋檢索" transform="translate(-20.000000, -238.000000)">
		<g id="icon_company_normal" transform="translate(20.000000, 238.000000)">
			<rect id="矩形" class="st0" width="24" height="24"/>
			<path id="形状" d="M22.8,20.5H22V10c0-1.6-1.4-3-3-3h-4.5V5.5c0-1.7-1.4-3-3-3h-6c-1.7,0-3,1.3-3,3v15H1.8
				c-0.4,0-0.8,0.3-0.8,0.8S1.3,22,1.8,22h21c0.4,0,0.8-0.3,0.8-0.8S23.2,20.5,22.8,20.5z M13,7v13.5H4v-15C4,4.7,4.7,4,5.5,4h6
				C12.3,4,13,4.7,13,5.5V7z M20.5,20.5h-6v-12H19c0.8,0,1.5,0.7,1.5,1.5V20.5z M10.8,7H6.2C5.8,7,5.5,7.3,5.5,7.8s0.3,0.8,0.8,0.8
				h4.5c0.4,0,0.8-0.3,0.8-0.8S11.2,7,10.8,7z M10.8,11.5H6.2c-0.4,0-0.8,0.3-0.8,0.8S5.8,13,6.2,13h4.5c0.4,0,0.8-0.3,0.8-0.8
				S11.2,11.5,10.8,11.5z M10.8,16H6.2c-0.4,0-0.8,0.3-0.8,0.8s0.3,0.8,0.8,0.8h4.5c0.4,0,0.8-0.3,0.8-0.8S11.2,16,10.8,16z
				 M18.2,11.5h-1.5c-0.4,0-0.8,0.3-0.8,0.8s0.3,0.8,0.8,0.8h1.5c0.4,0,0.8-0.3,0.8-0.8S18.7,11.5,18.2,11.5z M18.2,16h-1.5
				c-0.4,0-0.8,0.3-0.8,0.8s0.3,0.8,0.8,0.8h1.5c0.4,0,0.8-0.3,0.8-0.8S18.7,16,18.2,16z"/>
		</g>
	</g>
</g>
</svg>
