<?xml version="1.0" encoding="utf-8"?>
<!-- Generator: Adobe Illustrator 25.0.0, SVG Export Plug-In . SVG Version: 6.00 Build 0)  -->
<svg version="1.1" id="圖層_1" xmlns="http://www.w3.org/2000/svg" xmlns:xlink="http://www.w3.org/1999/xlink" x="0px" y="0px"
	 viewBox="0 0 24 24" style="enable-background:new 0 0 24 24;" xml:space="preserve">
<style type="text/css">
	.st0{fill-opacity:0;}
</style>
<g id="dummy">
	<g id="_x32_.1_x5F_搜尋檢索" transform="translate(-20.000000, -347.000000)">
		<g id="icon_connect_normal" transform="translate(20.000000, 347.000000)">
			<rect id="矩形" class="st0" width="24" height="24"/>
			<path id="形状" d="M19.5,1.5h-15c-1.7,0-3,1.3-3,3v12c0,1.6,1.3,3,3,3h3l3.1,2.8c0.2,0.1,0.3,0.2,0.5,0.2
				c0.5,0,0.9-0.4,0.9-0.9v-2.1h7.5c1.6,0,3-1.4,3-3v-12C22.5,2.8,21.1,1.5,19.5,1.5z M21,16.5c0,0.8-0.7,1.5-1.5,1.5H12
				c-0.4,0-0.8,0.2-1.1,0.4c-0.3,0.3-0.4,0.7-0.4,1.1v0.7l-2-1.8c-0.3-0.3-0.6-0.4-1-0.4h-3C3.7,18,3,17.3,3,16.5v-12
				C3,3.7,3.7,3,4.5,3h15C20.3,3,21,3.7,21,4.5V16.5z M17.2,7.5H6.8C6.3,7.5,6,7.8,6,8.2C6,8.7,6.3,9,6.8,9h10.5
				C17.7,9,18,8.7,18,8.2C18,7.8,17.7,7.5,17.2,7.5z M17.2,12H6.8C6.3,12,6,12.3,6,12.8s0.3,0.8,0.8,0.8h10.5c0.4,0,0.8-0.3,0.8-0.8
				S17.7,12,17.2,12z"/>
		</g>
	</g>
</g>
</svg>
