<?xml version="1.0" encoding="utf-8"?>
<!-- Generator: Adobe Illustrator 25.0.0, SVG Export Plug-In . SVG Version: 6.00 Build 0)  -->
<svg version="1.1" id="圖層_1" xmlns="http://www.w3.org/2000/svg" xmlns:xlink="http://www.w3.org/1999/xlink" x="0px" y="0px"
	 viewBox="0 0 24 24" style="enable-background:new 0 0 24 24;" xml:space="preserve">
<style type="text/css">
	.st0{fill-opacity:0;}
</style>
<rect id="矩形" class="st0" width="24" height="24"/>
<path id="形状" d="M20.8,4.5H10.3L8,3.1C7.9,3,7.7,3,7.5,3H3.2C2,3,1,3.9,1,5.2v13.6C1,20,2,21,3.2,21h17.6c1.2,0,2.2-1,2.2-2.2
	V6.7C23,5.4,22,4.5,20.8,4.5z M3.2,5h4.1l2.3,1.4C9.6,6.4,9.8,6.5,10,6.5h10.8c0.1,0,0.2,0.1,0.2,0.2v0.8H3V5.2C3,5,3.1,5,3.2,5z
	 M20.8,19H3.2C3.1,19,3,18.9,3,18.8V9.5h18v9.3C21,18.9,20.9,19,20.8,19z"/>
</svg>
